<svg viewBox="0 0 600 600"
    xmlns="http://www.w3.org/2000/svg">

    <g transform="translate(206.247 -180.32542)">
        <path d="m86.717 659.94c-43.861-3.8788-79.621-19.446-110.04-47.903-23.228-21.729-42.778-55.751-49.816-86.696-13.775-60.563 4.7397-122.46 49.464-165.36 67.517-64.761 172.49-65.016 240.27-.5831 53.073 50.454 69.181 127.09 40.759 193.91-19.842 46.65-58.362 82.212-106.32 98.161-17.956 5.9711-47.93 9.9194-64.308 8.471z" stroke="#000" stroke-width="4.2857"/>
        <g transform="translate(-306.97 -160.13)">
            <path d="m586.9 644.77c0 100.7-81.633 182.33-182.33 182.33s-182.33-81.633-182.33-182.33 81.633-182.33 182.33-182.33 182.33 81.633 182.33 182.33z" opacity=".85965" stroke="#000"/>
            <path d="m389.92 614.46c0 28.731-23.291 52.023-52.023 52.023-28.731 0-52.023-23.291-52.023-52.023 0-28.731 23.291-52.023 52.023-52.023 28.731 0 52.023 23.291 52.023 52.023z" fill="#fff" stroke="#030000" stroke-width=".02" transform="translate(164.63 -.50523)"/>
            <path d="m389.92 614.46c0 28.731-23.291 52.023-52.023 52.023-28.731 0-52.023-23.291-52.023-52.023 0-28.731 23.291-52.023 52.023-52.023 28.731 0 52.023 23.291 52.023 52.023z" fill="#fff" stroke="#030000" stroke-width=".02" transform="translate(-30.81 -.50508)"/>
            <g stroke="#fff400">
                <path d="m238.68 553.64c124.83-6.6162 140.93 62.883 97.653 103.19-22.8 21.233-62.426 34.563-112.03 24.804" fill="none" stroke-width="6"/>
                <path d="m572.76 553.98c-124.28-6.5872-142.03 61.567-99.468 101.94 22.706 21.541 62.579 35.176 112.6 25.336" fill="none" stroke-width="6"/>
                <path d="m315.25 697.8c0 29.062-7.1528 68.818 55.977 67.568l66.42.35894c70.435.38064 62.461-30.841 62.461-66.917 0 59.317-184.86 58.686-184.86-1.0102z" fill="#bc2122" stroke-width="3"/>
            </g>
            <path d="m335 621.65c0 11.835-9.5939 21.429-21.429 21.429s-21.429-9.5939-21.429-21.429 9.5939-21.429 21.429-21.429 21.429 9.5939 21.429 21.429z" stroke="#030000" stroke-width=".02" transform="translate(-5.8571 -7.7143)"/>
            <path d="m335 621.65c0 11.835-9.5939 21.429-21.429 21.429s-21.429-9.5939-21.429-21.429 9.5939-21.429 21.429-21.429 21.429 9.5939 21.429 21.429z" stroke="#030000" stroke-width=".02" transform="translate(186.29 -8.5714)"/>
            <path d="m243.17 683.41c-.98215-.1634-4.9488-.67861-8.8149-1.1449-8.254-.99556-7.6177-.18451-9.4933-12.1-1.8182-11.551-1.8102-39.006.0149-50.999 2.858-18.782 9.0163-38.42 17.222-54.918 4.0215-8.0854 4.4398-8.6501 6.7857-9.1581 3.3506-.72556 27.241.53647 36.901 1.9493 4.258.62276 10.635 1.8122 14.17 2.6432l6.4286 1.5109-6.0714.89678c-13.851 2.0459-25.184 8.3122-33.746 18.659-7.8182 9.4482-11.57 20.154-11.586 33.059-.0123 10.104.89409 13.998 5.4774 23.531 3.1175 6.4844 4.3927 8.263 9.7562 13.608 10.265 10.229 22.199 15.121 36.884 15.121 6.8584 0 15.254-1.3895 18.324-3.0327.79242-.42409 1.5835-.62831 1.758-.45383.49768.49768-8.0673 5.8372-14.368 8.9573-9.8174 4.8614-21.285 8.5209-33.189 10.591-2.347.40823-8.1734.80588-14.523 1.0892-9.236.41206-19.579.58213-21.931.19078h-.00003z" fill="#bc2122" stroke="#fff400" stroke-width=".014286"/>
            <path d="m540.6 683.08c-13.254-1.2897-29.107-5.392-39.973-10.344-6.0242-2.7453-15.564-8.2053-15.117-8.6521.16909-.16909 2.5243.21283 5.2338.84871 6.9605 1.6335 17.769 1.4703 24.926-.37631 23.467-6.0546 38.952-26.223 38.918-50.687-.0132-9.4749-1.2914-15.012-5.4395-23.563-2.7106-5.5879-4.2927-7.755-9.4389-12.929-9.3418-9.3924-19.82-14.443-32.152-15.499l-5.4595-.46733 3.5714-.96895c12.856-3.4879 31.992-5.8853 47.161-5.9083l9.3034-.0141 4.4058 8.8073c9.2655 18.522 14.797 36.149 17.747 56.55 1.5626 10.808 2.0635 28.627 1.107 39.386-.80545 9.0597-2.5728 20.844-3.2238 21.495-.17382.17381-3.4753.76651-7.3365 1.3171-9.1671 1.3072-26.04 1.8027-34.234 1.0054z" fill="#bc2122" stroke="#030000" stroke-width=".014286"/>
            <path d="m404.78 595.58c-.48317-.75845-10.276-23.431-11.036-25.551-1.0429-2.9086-.77881-7.089.62996-9.9707 1.1466-2.3454 3.819-5.1841 5.5589-5.9048.61591-.25511 1.1117-.56602 1.1017-.69089s-.96186-.67368-2.1153-1.2196c-4.0888-1.9351-7.5535-5.985-9.1458-10.691l-.81266-2.4016-.10753-38.191-.10753-38.191h2.9162 2.9162l-.0411 37.743c-.0367 33.739.0203 37.925.53763 39.455 1.5946 4.7186 6.4259 8.3937 11.034 8.3937 4.6082 0 9.4395-3.6752 11.034-8.3937.51733-1.5308.57436-5.7163.53763-39.455l-.0411-37.743h2.9162 2.9162l-.10753 38.191-.10754 38.191-.81265 2.4016c-1.5923 4.7057-5.057 8.7556-9.1458 10.691-1.1534.54587-2.1053 1.0947-2.1153 1.2196-.01.12487.4858.43578 1.1017.69089 1.7399.72069 4.4123 3.5593 5.5589 5.9048 1.4088 2.8816 1.6729 7.0621.62996 9.9707-.76038 2.1206-10.553 24.793-11.036 25.551-.15817.24829-.75595.45144-1.3284.45144-.57244 0-1.1702-.20315-1.3284-.45144z" fill="#fecc94"/>
            <path d="m345.71 512.36c0 5.1284-4.1574 9.2857-9.2857 9.2857-5.1284 0-9.2857-4.1574-9.2857-9.2857 0-5.1284 4.1574-9.2857 9.2857-9.2857 5.1284 0 9.2857 4.1574 9.2857 9.2857z" fill="#ff0900" stroke="#ff0900" stroke-width="3" transform="translate(69.688 15.58)"/>
            <path d="m356.33 702.47c0 6.4855-5.2575 11.743-11.743 11.743s-11.743-5.2575-11.743-11.743 5.2575-11.743 11.743-11.743 11.743 5.2575 11.743 11.743z" fill="#d4e96f" stroke="#fff400" stroke-width="3" transform="translate(25.759 2.7779)"/>
            <path d="m357.59 729.32c0-15.78 27.075-14.56 27.075-1.4959 0 9.5019-10.7 25.182-13.612 36.051-2.9142-10.876-13.463-25.477-13.463-34.555z" fill="#78e96f" stroke="#fff400" stroke-width="1.777"/>
        </g>
    </g>
</svg>